<svg xmlns="http://www.w3.org/2000/svg" width="37.337002mm" height="33.896999mm" viewBox="0 0 37.337002 33.896999"><path d="M129.736 57.462a14.483 14.483 0 0 1 1.554-1.36 6.336 6.336 0 0 1 8.317 1.185 7.978 7.978 0 0 1 1.425 4.008c.697 5.297-3.007 9.605-7.442 11.632-.647.297-1.332.515-2.007.75-.38.13-.589.287-.523.768a32.405 32.405 0 0 1-.09 7.965 73.518 73.518 0 0 1-5.34 20.172 56.646 56.646 0 0 1-8.214 14.186 31.027 31.027 0 0 1-11.483 9.242 23.214 23.214 0 0 1-13.138 1.725 18.14 18.14 0 0 1-8.873-4.322c-1.044-.872-2.01-1.838-2.975-2.728-1.248.98-2.446 2.06-3.776 2.941-4.674 3.096-9.764 4.902-15.447 4.408a21.54 21.54 0 0 1-9.67-3.418c-5.528-3.493-8.536-8.706-10.003-14.943a51.16 51.16 0 0 1-.79-15.732 116.862 116.862 0 0 1 2.879-18.062c1.635-6.908 3.466-13.77 5.26-20.64 1.191-4.559 2.468-9.094 3.702-13.641a6.132 6.132 0 0 0 .096-.647c-1.009-.082-1.976-.192-2.946-.233a61.629 61.629 0 0 0-10.481.373c-5.454.704-10.716 2.006-15.487 4.887a25.744 25.744 0 0 0-7.93 8.1c-2.807 4.196-3.63 8.89-3.415 13.839.364 8.378 6.127 14.153 13.488 16.072.687.18 1.403.248 2.216.386-3.988 3.4-15.93 13.133-15.93 13.133a28.282 28.282 0 0 1-7.128-3.52c-2.776-2.158-3.827-5.121-4.553-7.446C-.426 81.872-.155 77.18.714 72.46a53.544 53.544 0 0 1 8.143-20.18 66.94 66.94 0 0 1 11.592-13.016 82.87 82.87 0 0 1 17.953-11.967 60.88 60.88 0 0 1 16.893-5.684c4.763-.823 9.57-1.4 14.359-2.066 5.196-.722 10.398-1.397 15.591-2.134a136.995 136.995 0 0 0 16.34-3.247 51.723 51.723 0 0 0 15.155-6.38 31.476 31.476 0 0 0 7.51-6.853c.206-.26.437-.503.813-.933 0 1.02-.007 1.838 0 2.656a61.717 61.717 0 0 1-1.314 14.357c-1.503 6.626-4.394 12.486-9.546 17.064a30.746 30.746 0 0 1-11.733 6.325 42.271 42.271 0 0 1-9.802 1.796c-3.06.18-6.133.148-9.2.145-1.507-.002-3.013-.177-4.52-.203a1.065 1.065 0 0 0-.785.53q-3.293 7.067-6.522 14.163c-3.09 6.78-5.935 13.66-8.354 20.713a99.776 99.776 0 0 0-3.928 14.615 41.113 41.113 0 0 0-.554 14.297 15.37 15.37 0 0 0 5.188 9.66 8.455 8.455 0 0 0 12.208-.901.855.855 0 0 0 .047-1.19 40.718 40.718 0 0 1-4.446-11.01c-1.399-5.842-1.707-11.704.068-17.534a19.22 19.22 0 0 1 7.094-10.453 14.173 14.173 0 0 1 9.875-2.852c5.737.605 9.872 3.389 11.644 9.477a22.555 22.555 0 0 1-.755 14.09c-2.214 6.348-5.976 11.75-10.343 16.774-.346.398-.681.81-1.063 1.171-.319.302-.301.508-.018.833a7.363 7.363 0 0 0 4.242 2.217c3.315.722 6.26-.325 9.059-1.919 4.053-2.308 6.784-5.853 8.947-9.887a36.847 36.847 0 0 0 3.633-9.943 39.966 39.966 0 0 0-.984-21.273 18.883 18.883 0 0 0-3.547-6.122 23.76 23.76 0 0 1-2.271-3.047 3.948 3.948 0 0 1 .117-4.483c2.542-3.71 5.916-5.989 10.582-5.782a8.356 8.356 0 0 1 5.83 2.931c1.343 1.46 2.504 3.088 3.79 4.604a4.17 4.17 0 0 0 3.52 1.631 1.968 1.968 0 0 0 1.855-2.624 4.715 4.715 0 0 0-2.4-2.83c-.244-.14-.488-.278-.94-.534zm-46.277 47.07c.304-.363.474-.553.63-.753a31.552 31.552 0 0 0 4.206-7.166 17.428 17.428 0 0 0 1.488-6.543c.026-1.907-.736-3.318-2.076-3.863a3.956 3.956 0 0 0-4.278 1.048 6.38 6.38 0 0 0-1.432 3.247 27.84 27.84 0 0 0 .736 12.015c.165.631.44 1.233.726 2.015z" class="cls-1" style="fill:#fff" transform="matrix(.26458 0 0 .26458 0 0)"/></svg>