<svg xmlns="http://www.w3.org/2000/svg" xml:space="preserve" stroke-miterlimit="10" style="fill-rule:nonzero;clip-rule:evenodd;stroke-linecap:round;stroke-linejoin:round" viewBox="0 0 1321.3 2807.71"><g fill="#fff" fill-rule="evenodd"><path d="M1320.14 2169.92c-28.66-10.44-56.74-20.59-84.75-30.89-171.38-62.93-342.692-125.94-514.146-188.66-7.777-2.88-10.153-6.48-10.153-14.69.216-481.67.216-963.34.072-1445.009 0-7.057 1.728-11.738 7.56-16.347C915.741 319.145 1112.61 163.749 1309.56 8.354c3.1-2.45 6.26-4.682 10.66-7.922V2169.85l-.08.07ZM.072 2169.92V0c19.587 15.41 38.02 29.812 56.311 44.286 180.455 142.362 360.91 284.796 541.509 426.942 8.497 6.697 11.594 13.394 11.594 24.267-.288 478.429-.288 956.855.072 1435.355 0 12.03-3.097 17.21-14.618 21.39-194.569 70.93-388.922 142.36-583.347 213.65-3.6 1.37-7.272 2.59-11.449 4.03H.072ZM94.836 2385.02v130.62c19.01 0 37.301.36 55.591-.36 2.665-.14 7.273-5.33 7.345-8.28.504-37.16.576-74.39 0-111.54-.072-3.53-5.401-9.8-8.569-9.94-17.93-.94-35.861-.5-54.367-.5Zm73.233 422.69h2.017c17.498-.22 32.692-5.76 46.59-15.41 19.802-13.75 31.108-32.26 30.748-57.46-.505-37.59 0-75.18-.217-112.77-.144-30.82-11.161-55.66-40.253-70.07 23.619-17.21 32.477-31.97 32.837-58.61.576-38.67.792-77.34 0-116.01-.793-41.69-28.084-67.54-69.561-67.54H9.505v497.58c53.72 0 106.07-.43 158.42.22l.144.07Zm-72.657-76.26c19.515 0 37.877-.43 56.239.15 10.73.36 14.258-4.83 14.258-14.26 0-33.2.216-66.47-.144-99.66-.144-13.32-9.505-25.42-21.387-26.21-16.058-1.08-32.26-.29-49.038-.29v140.27h.072ZM624.031 2386.89c-23.907 0-45.869-.36-67.76.21-7.849.22-11.378-2.59-14.042-9.79-8.281-22.18-17.354-44.07-26.427-66.97h294.517c-3.168 9.44-5.977 18.15-9.001 26.79-4.681 13.61-9.937 27.08-14.042 40.9-2.16 7.35-5.904 9.22-13.105 9.07-22.323-.43-44.646-.14-68.049-.14v419.89h-82.018v-419.89l-.073-.07ZM1094.04 2643.96h80.93c.29 3.39.72 6.48.72 9.58.08 23.11.22 46.3-.07 69.41-.07 7.57 2.52 11.74 10.44 11.74 13.4 0 26.72-.07 40.11-.07 8.36 0 11.74-5.04 11.81-12.46.22-29.31.72-58.54-.36-87.85-.21-6.19-5.18-13.97-10.37-17.93a428.676 428.676 0 0 0-44.86-30.1c-27.72-16.13-53.65-34.13-73.23-60.05-10.66-14.19-17-29.31-16.42-47.96 1.08-34.71.29-69.42.29-104.13 0-35.64 28.8-64.3 64.88-64.37 31.47-.08 62.93 0 94.33 0 41.62 0 65.17 21.67 68.48 63.15.29 3.96.22 7.92.22 11.88v76.69h-80.15c-.29-2.81-.79-5.91-.86-9-.22-18.08-.44-36.15-.36-54.22 0-7.49-3.1-11.89-10.59-12.03-14.83-.22-29.67-.72-44.43.36-3.24.22-8.57 6.26-8.64 9.72-.72 26-1.58 52.14.36 77.99.5 7.05 9.36 15.05 16.27 19.8 21.97 15.19 44.94 28.88 67.4 43.42 19.81 12.89 39.25 26.72 50.91 47.67 5.55 9.94 9.44 22.18 9.73 33.41.5 17.29.64 34.57.64 51.92v10.23c0 20.16-.21 40.25-.28 60.41-.08 36.01-29.1 65.6-65.17 66.04-34.35.43-68.7.28-103.05 0-27.58-.22-58.83-30.25-59.4-57.97-.72-33.63-.15-67.26-.15-100.89 0-1.36.43-2.73.79-4.61l.08.22Z"/></g></svg>